<svg xmlns="http://www.w3.org/2000/svg" xmlns:xlink="http://www.w3.org/1999/xlink" version="1.1" id="Layer_1" x="0px" y="0px" style="enable-background:new 0 0 1080 1080;" xml:space="preserve" viewBox="194.11 446.35 691.77 187.35">
<style type="text/css">
	.st0{fill:#FFFFFF;}
	.st1{fill:#A0463E;}
	.st2{fill:url(#SVGID_1_);}
	.st3{fill:url(#SVGID_00000021805273898025347460000006286846763119216565_);}
	.st4{fill:url(#SVGID_00000121977485381224295680000017410193852586887306_);}
	.st5{fill:url(#SVGID_00000020385160189368559000000016538401625031948957_);}
	.st6{fill:url(#SVGID_00000008840503481705347410000013914475382759366042_);}
	.st7{fill:url(#SVGID_00000174583761292592819960000005835310157096931498_);}
	.st8{fill:url(#SVGID_00000062176009211929495990000013499765901696787343_);}
	.st9{fill:#FFE5CD;}
	.st10{fill:url(#SVGID_00000089531854091375161710000009118162964238955447_);}
	.st11{fill:url(#SVGID_00000139998112533565585380000000598221339932478873_);}
	.st12{fill:url(#SVGID_00000056405969561920435460000012260860235329661584_);}
	.st13{fill:url(#SVGID_00000078029986481701535370000012258338909689275832_);}
	.st14{fill:url(#SVGID_00000047037698119858202430000005343125392462544533_);}
	.st15{fill:url(#SVGID_00000127732051988736856190000009995320436927223436_);}
	.st16{fill:url(#SVGID_00000020361860729065912620000005955277152862850200_);}
	.st17{fill:url(#SVGID_00000126314617386037312970000009804220739542984337_);}
	.st18{fill:url(#SVGID_00000027578297085417442750000016441633338211777433_);}
	.st19{fill:url(#SVGID_00000029025277517947833220000010536035379499646080_);}
	.st20{fill:url(#SVGID_00000152234519847620227760000009234446816089073071_);}
	.st21{fill:url(#SVGID_00000136384913864612761870000016183333410864910743_);}
	.st22{fill:url(#SVGID_00000005246652684431345910000002311064046471455114_);}
	.st23{fill:url(#SVGID_00000107583915905339609640000000663286016731173004_);}
</style>
<g>
	<g>
		<g>
			<g>
				<g>
					<path class="st1" d="M467.08,569.13h-50.21v-72.47h5.73v66.1c0,1.89,0.29,3.18,0.88,3.87c0.59,0.7,1.57,1.04,2.94,1.04        c6.56,0,14.04-0.52,22.45-1.56c8.41-1.04,14.48-2.18,18.21-3.43V569.13z"/>
					<path class="st1" d="M446.34,496.65h6.37l28.27,63.48c0.42,1.01,0.88,1.52,1.38,1.52c0.52,0,0.96-0.58,1.31-1.73l18.19-63.27        h6.37l-25.66,72.47h-3.93L446.34,496.65z"/>
					<path class="st1" d="M517.05,502.81c-1.18,0-2.11-0.39-2.78-1.19c-0.67-0.79-1.01-1.66-1.03-2.62        c-0.01-0.96,0.32-1.83,0.99-2.62s1.61-1.19,2.81-1.19c1.32,0,2.33,0.49,3.03,1.47c0.7,0.98,1.04,2.28,1.04,3.91        c0,1.39-0.27,2.81-0.8,4.26c-0.53,1.45-1.36,2.72-2.5,3.8c-1.13,1.09-2.43,1.63-3.89,1.63v-0.71c1.56,0,2.82-0.83,3.79-2.5        c0.97-1.66,1.39-3.25,1.27-4.76C518.33,502.65,517.68,502.81,517.05,502.81z"/>
					<path class="st1" d="M530.07,560.07c0-0.83,0.28-1.52,0.83-2.07c0.55-0.55,1.24-0.83,2.07-0.83c0.78,0,1.53,0.41,2.26,1.24        c0.73,0.83,1.47,1.82,2.23,2.99c0.75,1.17,1.63,2.34,2.64,3.5c1,1.17,2.39,2.16,4.18,2.99c1.78,0.83,3.83,1.24,6.14,1.24        c2.24,0,4.41-0.38,6.51-1.15c2.1-0.77,3.87-1.75,5.31-2.94c1.44-1.19,2.59-2.51,3.47-3.95c0.87-1.44,1.31-2.84,1.31-4.21        c0-1.89-0.41-3.52-1.24-4.9c-0.83-1.38-1.94-2.46-3.34-3.24c-1.4-0.78-3.01-1.44-4.81-1.98c-1.8-0.54-3.71-1-5.72-1.38        c-2.01-0.38-4.01-0.77-6.02-1.19c-2.01-0.41-3.91-0.95-5.72-1.61c-1.8-0.66-3.41-1.47-4.81-2.42c-1.4-0.96-2.52-2.25-3.34-3.89        c-0.83-1.64-1.24-3.57-1.24-5.79c0-3.75,1.66-6.85,4.99-9.29c3.33-2.44,7.93-3.66,13.8-3.66c5.99,0,10.55,0.56,13.66,1.68        c3.11,1.12,4.67,2.68,4.67,4.69c0,0.57-0.28,1.1-0.85,1.59c-0.57,0.5-1.2,0.74-1.91,0.74c-0.8,0-1.65-0.27-2.53-0.8        c-0.88-0.53-1.76-1.18-2.62-1.95c-0.86-0.77-1.77-1.53-2.73-2.3c-0.96-0.77-2.1-1.42-3.43-1.95c-1.33-0.53-2.73-0.8-4.19-0.8        c-3.82,0-6.97,1.1-9.43,3.29c-2.47,2.19-3.7,4.71-3.7,7.54c0,1.46,0.32,2.74,0.97,3.82c0.65,1.09,1.53,1.95,2.64,2.58        c1.11,0.64,2.4,1.22,3.87,1.73c1.47,0.52,3.04,0.92,4.71,1.2c1.66,0.28,3.37,0.63,5.13,1.03c1.76,0.4,3.47,0.8,5.13,1.2        s3.23,0.98,4.71,1.73c1.47,0.76,2.77,1.63,3.88,2.62c1.11,0.99,1.99,2.28,2.64,3.86c0.65,1.58,0.97,3.39,0.97,5.41        c0,3.37-0.96,6.29-2.88,8.76c-1.92,2.47-4.49,4.31-7.7,5.52c-3.21,1.21-6.85,1.82-10.93,1.82c-2.48,0-4.94-0.32-7.38-0.97        c-2.44-0.65-4.54-1.47-6.3-2.48c-1.76-1-3.18-2.14-4.26-3.4C530.61,562.47,530.07,561.25,530.07,560.07z"/>
					<path class="st1" d="M600.63,496.65h55.81v6.44c-2.71-1.18-6.51-2.31-11.38-3.38c-4.87-1.07-8.13-1.61-9.78-1.61        c-1.37,0-2.35,0.35-2.95,1.04c-0.6,0.7-0.9,1.99-0.9,3.88v66.1h-5.8v-66.1c0-1.89-0.3-3.18-0.88-3.88        c-0.59-0.7-1.57-1.04-2.94-1.04c-1.65,0-4.91,0.54-9.78,1.61c-4.87,1.07-8.66,2.2-11.38,3.38V496.65z"/>
					<path class="st1" d="M642.63,518.98h5.8v9.06c0,1.16,0.18,1.73,0.53,1.73c0.28,0,0.71-0.41,1.27-1.24        c0.97-1.35,2.06-2.62,3.27-3.82c1.21-1.2,2.63-2.37,4.25-3.5c1.62-1.13,3.44-2.03,5.48-2.69s4.13-0.99,6.28-0.99        c2.64,0,4.87,0.42,6.69,1.27c1.82,0.85,2.72,1.92,2.72,3.22c0,0.64-0.19,1.24-0.58,1.82c-0.39,0.58-1.08,0.87-2.07,0.87        c-0.87,0-1.72-0.18-2.53-0.53c-0.81-0.35-1.51-0.74-2.09-1.15c-0.58-0.41-1.39-0.8-2.42-1.15c-1.04-0.35-2.17-0.53-3.4-0.53        c-2.85,0-5.63,0.78-8.32,2.35c-2.69,1.57-4.88,3.69-6.56,6.35c-1.69,2.67-2.53,5.47-2.53,8.42v30.65h-5.8V518.98z"/>
					<path class="st1" d="M705.34,570.58c-3.61,0-6.95-0.63-10.01-1.88c-3.07-1.25-5.7-3.01-7.91-5.29        c-2.21-2.28-3.93-5.09-5.17-8.44c-1.24-3.35-1.86-7.04-1.86-11.08c0-4.74,1.2-9.14,3.59-13.18c2.39-4.05,5.64-7.25,9.75-9.63        c4.1-2.37,8.55-3.56,13.34-3.56c1.93,0,3.82,0.21,5.64,0.64c1.83,0.42,3.52,1.06,5.06,1.89c1.54,0.84,2.78,1.96,3.72,3.36        c0.93,1.4,1.4,2.99,1.4,4.76c0,2.6-0.84,5.05-2.51,7.36c-1.68,2.31-3.89,4.27-6.65,5.87c-2.76,1.6-5.95,2.88-9.57,3.82        c-3.62,0.94-7.33,1.42-11.13,1.42h-2.55c-1.11-0.05-1.96,0.24-2.55,0.87c-0.59,0.63-0.78,1.45-0.57,2.46        c1.18,5.83,3.46,10.36,6.85,13.59s7.65,4.85,12.79,4.85c3.77,0,6.99-0.94,9.64-2.81c2.65-1.88,4.65-4.3,6-7.27l1.52,0.85        C720.53,566.78,714.26,570.58,705.34,570.58z M686.66,541.74c-0.05,0.85,0.18,1.62,0.69,2.3c0.51,0.68,1.14,1.07,1.89,1.17        c1.37,0.19,2.61,0.28,3.72,0.28c1.91,0,3.96-0.25,6.14-0.76c2.18-0.51,4.33-1.26,6.44-2.25c2.11-0.99,4.02-2.15,5.73-3.47        c1.71-1.32,3.1-2.88,4.16-4.69c1.06-1.8,1.59-3.69,1.59-5.64c0-3-1-5.36-2.99-7.1c-1.99-1.73-4.41-2.6-7.24-2.6        c-3.02,0-5.8,0.64-8.35,1.93c-2.55,1.29-4.66,3-6.33,5.13c-1.68,2.14-2.98,4.55-3.93,7.25        C687.23,536,686.73,538.81,686.66,541.74z"/>
					<path class="st1" d="M731.77,569.13v-50.14h5.8v5.34c0,1.23,0.22,1.84,0.67,1.84c0.31,0,0.84-0.34,1.59-1.03        c2.67-2.55,5.48-4.45,8.44-5.72c2.96-1.26,6.28-1.89,9.96-1.89c5.45,0,9.9,1.56,13.36,4.69c3.46,3.13,5.18,7.14,5.18,12.05        v34.86h-5.8v-34.71c0-2.48-0.38-4.71-1.15-6.71c-0.77-1.99-1.8-3.62-3.1-4.87c-1.3-1.25-2.77-2.21-4.42-2.87        c-1.65-0.66-3.4-0.99-5.24-0.99c-3.16,0-6.26,0.78-9.29,2.35c-3.03,1.57-5.49,3.64-7.38,6.23c-1.89,2.58-2.83,5.25-2.83,8.02        v33.55H731.77z"/>
					<path class="st1" d="M785.46,542.51c0-3.56,0.47-6.86,1.42-9.89c0.94-3.03,2.29-5.67,4.05-7.91c1.76-2.24,3.99-4,6.69-5.27        c2.7-1.27,5.73-1.91,9.08-1.91c3.56,0,6.56,0.48,9.01,1.43c2.44,0.96,4.35,2.09,5.71,3.41c1.16,1.16,2.08,1.73,2.76,1.73        c0.87,0,1.31-1.06,1.31-3.18V495.2h5.34v73.92h-23.11c-2.93,0-5.63-0.52-8.1-1.57c-2.48-1.05-4.57-2.45-6.28-4.21        c-1.71-1.76-3.17-3.79-4.37-6.1c-1.2-2.31-2.09-4.71-2.65-7.2C785.74,547.55,785.46,545.04,785.46,542.51z M791.33,542.59        c0,2.6,0.26,5.09,0.78,7.48c0.52,2.39,1.34,4.67,2.48,6.81c1.13,2.15,2.52,4.02,4.18,5.61c1.65,1.59,3.69,2.85,6.12,3.79        c2.43,0.93,5.12,1.4,8.07,1.4h8.32c1.08,0,1.96-0.33,2.64-0.99c0.67-0.66,1.01-1.53,1.01-2.62v-31.67c0-1.51-0.2-2.77-0.6-3.79        c-1.11-2.59-3.14-4.79-6.09-6.58c-2.95-1.79-6.18-2.69-9.7-2.69c-3.26,0-6.22,1.09-8.88,3.27c-2.67,2.18-4.72,5.04-6.16,8.58        C792.05,534.73,791.33,538.53,791.33,542.59z"/>
					<path class="st1" d="M839.95,569.13c3.21-4.43,6.62-8.98,10.24-13.62c3.62-4.65,6.45-8.19,8.48-10.62l3.01-3.64        c5.71-7.31,10.3-13.07,13.77-17.27c1.32-1.6,0.86-2.55-1.38-2.83c-0.99-0.12-3.07-0.51-6.23-1.17        c-3.16-0.66-5.5-0.99-7.01-0.99c-1.89,0-3.56,0.23-5.01,0.69s-2.61,1.06-3.49,1.79c-0.87,0.73-1.64,1.54-2.3,2.42        c-0.66,0.88-1.22,1.77-1.66,2.65c-0.45,0.88-0.88,1.69-1.31,2.42c-0.42,0.73-0.93,1.33-1.52,1.79        c-0.59,0.46-1.27,0.69-2.05,0.69c-0.71,0-1.29-0.28-1.73-0.85c-0.45-0.57-0.67-1.27-0.67-2.12c0-1.93,0.94-3.76,2.83-5.47        c1.89-1.71,4.25-3.05,7.08-4.02c2.83-0.97,5.65-1.45,8.46-1.45c2.97,0,6.26,0.36,9.87,1.08c3.61,0.72,6.02,1.1,7.22,1.15        c2.22,0.1,5.14-0.16,8.78-0.78c-3.33,4.6-6.5,8.85-9.52,12.74c-3.02,3.89-5.21,6.64-6.58,8.25l-2.02,2.41        c-8.28,10.22-14.11,17.49-17.48,21.83c-1.25,1.6-0.79,2.55,1.38,2.83c0.52,0.07,2.77,0.42,6.74,1.06        c3.97,0.64,6.75,0.96,8.33,0.96c2.34,0,4.35-0.22,6.05-0.67c1.7-0.45,3-1.04,3.91-1.77c0.91-0.73,1.65-1.53,2.23-2.41        c0.58-0.87,1.01-1.75,1.29-2.62c0.28-0.87,0.56-1.67,0.83-2.41c0.27-0.73,0.65-1.32,1.13-1.77c0.48-0.45,1.11-0.67,1.89-0.67        c0.71,0,1.28,0.28,1.72,0.85c0.44,0.57,0.65,1.27,0.65,2.12c0,1.96-0.86,3.77-2.57,5.45c-1.71,1.68-3.99,3-6.83,3.96        c-2.84,0.97-5.87,1.45-9.08,1.45c-2.95,0-6.51-0.35-10.67-1.04c-4.16-0.7-6.87-1.07-8.12-1.11        C845.67,568.35,842.78,568.58,839.95,569.13z"/>
				</g>
			</g>
		</g>
		<g>
			<path class="st1" d="M227.78,485.61l35.5,91.08c0.03,0.07,0.09,0.11,0.16,0.11h32.76c0.07,0,0.14,0.05,0.16,0.11l1.22,3.14      c0.03,0.09-0.01,0.19-0.1,0.23c-0.02,0.01-0.04,0.01-0.06,0.01h-41.7c-0.07,0-0.14-0.05-0.16-0.11l-36.81-94.44      c-0.03-0.09,0.01-0.19,0.1-0.23c0.02-0.01,0.04-0.01,0.06-0.01h8.7C227.69,485.49,227.75,485.54,227.78,485.61z"/>
			<path class="st1" d="M279.5,558.9c0.01,0.02,0.03,0.03,0.05,0.03c0.01,0,0.02-0.01,0.03-0.03c7.4-19.06,13.73-35.39,18.98-48.99      c3.37-8.71-2.28-18.43-11.21-20.48c-5.53-1.27-10.89,0.57-14.99,4.69c-0.05,0.05-0.05,0.13,0,0.19c0.01,0.01,0.02,0.02,0.03,0.02      c0.29,0.15,0.59,0.31,0.91,0.48c3.32,1.73,3.75,6.57,0.51,8.71c-3.2,2.12-7.32,0.3-7.9-3.55c-0.27-1.82,0.6-3.59,1.59-5.2      c7.84-12.71,26.36-12.19,33.33,1.06c1.86,3.54,2.52,7.41,1.98,11.6c-0.19,1.53-0.94,3.91-2.25,7.14      c-0.27,0.67-5.56,14.3-15.87,40.89c-1.21,3.12-1.88,5.27-2.01,6.45c-0.29,2.61,0.02,5.19,0.93,7.74c0.03,0.08-0.01,0.17-0.09,0.2      c-0.02,0.01-0.04,0.01-0.05,0.01h-8.5c-0.17,0-0.32-0.1-0.38-0.26l-32.7-83.9c-0.03-0.07,0.01-0.15,0.08-0.18      c0.02-0.01,0.03-0.01,0.05-0.01h8.66c0.13,0,0.25,0.08,0.3,0.2L279.5,558.9z"/>
			<g>
				<path class="st1" d="M294.17,560.53c-1.56,0.57-3.23,1.42-5,2.53c-0.06,0.03-0.09,0.09-0.1,0.15c-0.02,0.12,0.07,0.23,0.19,0.25       c0.94,0.15,1.59-0.38,2.42-0.57c0.02-0.01,0.05,0.01,0.06,0.02c0.02,0.03,0.01,0.06-0.01,0.08c-0.81,0.51-1.42,1.13-1.83,1.86       c-0.05,0.08-0.05,0.18,0,0.26c0.07,0.13,0.24,0.17,0.36,0.1l2.72-1.57c0.04-0.02,0.1-0.02,0.13,0.02       c0.05,0.04,0.05,0.12,0.01,0.16l-1.19,1.19c-0.1,0.1-0.12,0.24-0.05,0.36c0.08,0.14,0.26,0.18,0.4,0.1l4.37-2.58l4.56-4.93       c-0.87,0.05-2.01,0.11-3.41,0.18c-1.18,0.06-2.87,0.39-5.08,1.02c-0.65,0.18-1.44,0.56-2.36,1.14       c-0.02,0.01-0.04,0.03-0.05,0.06c-0.03,0.07-0.01,0.15,0.07,0.19c0.13,0.06,0.26,0.09,0.42,0.07c0.94-0.08,2.06-0.15,3.36-0.19       c0.03,0,0.06,0.02,0.07,0.05C294.23,560.48,294.21,560.52,294.17,560.53z"/>
				<path class="st1" d="M364.17,540.9c-1.34,1.66-2.43,3.18-3.25,4.91c-2.29,4.82-3.41,10.31-3.65,15.7       c-0.17,3.82-0.4,7.23-0.69,10.24c-1.51,15.35-10.4,28.77-21.61,38.74c-2.33,2.07-4.96,4.07-7.88,5.98       c-10.87,7.12-22.93,11.12-36.18,12.03c-2.22,0.15-4.56,0.16-7.01,0.03c-0.58-0.03-1.4-0.05-2.47-0.05       c-0.56,0-1.38-0.06-2.46-0.17c-5.84-0.62-11.62-1.92-17.34-3.91c-4.94-1.72-10-4.13-15.17-7.23c-4.85-2.9-9.42-6.15-13.72-9.73       c-0.16-0.14-0.26-0.27-0.31-0.41c-0.01-0.05,0.01-0.1,0.07-0.12c0.02-0.01,0.04,0,0.06,0.01c3.93,1.85,7.9,3.17,12.19,4.52       c10.63,3.35,21.47,5.28,32.52,5.82c1.4,0.07,2.83,0.07,4.28,0.01c1.01-0.05,2.43-0.11,4.28-0.18c3.4-0.13,6.93-0.57,10.6-1.31       c9.14-1.84,17.69-5.19,25.64-10.03c0.25-0.15,1.59-1.05,4.02-2.67c7.47-5.01,13.19-10.69,18.67-17.34       c0.02-0.02,0.02-0.05,0-0.07l-0.06-0.06c0,0,0,0,0,0c-2.09,1.89-3.89,3.49-5.4,4.81c-1.51,1.32-2.73,2.35-3.66,3.1       c-1.02,0.81-3.31,2.53-6.9,5.14c-6.85,5-14.23,8.91-22.16,11.73c-0.06,0.02-0.13,0.04-0.19,0.07       c-9.61,3.39-19.91,4.3-29.98,2.78c-4.11-0.62-9.13-1.54-14.54-2.91c-0.01,0-0.02-0.01-0.03-0.01c-4.42-1.12-9.1-2.54-13.76-4.32       c-4.65-1.79-9.29-3.95-13.61-6.56c-5.45-3.28-10.53-7.17-15.1-11.58c-0.57-0.56-1.14-1.11-1.69-1.68l-1.64-1.72l-1.59-1.77       c-0.52-0.6-1.03-1.21-1.54-1.82c-2.01-2.46-3.89-5.02-5.61-7.68c-1.72-2.66-3.29-5.42-4.7-8.26c-1.4-2.84-2.63-5.77-3.7-8.75       c-1.06-2.98-1.96-6.03-2.68-9.11c-0.71-3.09-1.23-6.21-1.59-9.35c-0.7-6.29-0.71-12.64,0.05-18.91       c0.74-6.27,2.2-12.45,4.34-18.39c0.24-0.75,0.55-1.48,0.84-2.21l0.88-2.19c0.32-0.72,0.65-1.43,0.98-2.15l0.49-1.07l0.25-0.53       l0.27-0.53l1.09-2.1c0.18-0.35,0.36-0.7,0.55-1.04l0.59-1.02l1.19-2.04c0.41-0.67,0.85-1.32,1.28-1.99l0.65-0.99l0.32-0.49       c0.11-0.16,0.23-0.32,0.34-0.48l1.38-1.92c0.23-0.32,0.45-0.64,0.69-0.95l0.74-0.92l1.47-1.85c0.5-0.61,1.03-1.19,1.54-1.78       l0.78-0.88l0.39-0.44c0.13-0.15,0.27-0.29,0.41-0.43l1.64-1.7c0.28-0.28,0.54-0.57,0.82-0.84l0.86-0.81l1.72-1.62       c0.58-0.53,1.19-1.03,1.78-1.54l0.9-0.77c0.3-0.26,0.59-0.51,0.91-0.75l1.86-1.44c0.31-0.24,0.62-0.49,0.93-0.72l0.96-0.68       l1.93-1.35c0.32-0.23,0.66-0.43,0.98-0.64l1-0.63l0.99-0.63c0.33-0.21,0.66-0.42,1.01-0.61c5.41-3.18,11.18-5.75,17.16-7.63       l0.56-0.18c0.19-0.06,0.38-0.11,0.57-0.16l1.13-0.31l2.26-0.63l2.29-0.51l1.15-0.26c0.19-0.04,0.38-0.09,0.57-0.12l0.58-0.1       l2.31-0.4c0.38-0.06,0.77-0.14,1.16-0.19l1.17-0.14l2.33-0.28c0.19-0.02,0.39-0.05,0.58-0.07l0.59-0.04l1.17-0.08l2.34-0.16       l2.35-0.05l1.17-0.02l0.59-0.01l0.59,0.01l2.34,0.05c3.12,0.14,6.24,0.45,9.33,0.93c0.77,0.13,1.54,0.24,2.31,0.39l2.3,0.46       l2.28,0.54c0.38,0.08,0.76,0.19,1.13,0.29l1.13,0.31c3.01,0.84,5.96,1.85,8.86,3.02c5.78,2.36,11.27,5.4,16.36,8.99       c5.07,3.62,9.73,7.81,13.86,12.46c4.11,4.67,7.69,9.8,10.66,15.26c-3.04-5.42-6.68-10.5-10.84-15.1       c-4.18-4.58-8.87-8.69-13.96-12.22c-5.11-3.51-10.59-6.45-16.35-8.71c-2.88-1.13-5.82-2.08-8.81-2.88l-1.12-0.29       c-0.37-0.1-0.75-0.2-1.13-0.28l-2.26-0.5l-2.28-0.42c-0.76-0.14-1.52-0.24-2.29-0.36c-3.06-0.44-6.14-0.7-9.22-0.8l-2.31-0.03       l-0.58,0l-0.58,0.02l-1.15,0.04l-2.31,0.07l-2.31,0.19l-1.15,0.09l-0.58,0.05c-0.19,0.02-0.38,0.05-0.57,0.07l-2.29,0.31       l-1.15,0.15c-0.38,0.06-0.76,0.14-1.14,0.21l-2.27,0.42l-0.57,0.11c-0.19,0.04-0.38,0.09-0.56,0.13l-1.12,0.27l-2.25,0.53       l-2.22,0.65l-1.11,0.32c-0.18,0.05-0.37,0.11-0.55,0.16l-0.55,0.19c-5.85,1.93-11.47,4.52-16.72,7.7       c-0.34,0.19-0.65,0.4-0.98,0.61l-0.96,0.63l-0.97,0.63c-0.32,0.21-0.65,0.41-0.96,0.64l-1.87,1.35l-0.93,0.67       c-0.31,0.23-0.6,0.48-0.9,0.72l-1.8,1.43c-0.3,0.24-0.59,0.49-0.88,0.74l-0.86,0.76c-0.57,0.51-1.16,1.01-1.72,1.53l-1.66,1.6       l-0.83,0.8c-0.27,0.27-0.53,0.56-0.79,0.84l-1.58,1.68c-0.13,0.14-0.27,0.28-0.39,0.42l-0.37,0.44l-0.75,0.88       c-0.49,0.59-1.01,1.16-1.48,1.75l-1.41,1.82l-0.7,0.91c-0.23,0.31-0.44,0.63-0.67,0.94l-1.32,1.88       c-0.11,0.16-0.22,0.31-0.33,0.47l-0.3,0.49l-0.61,0.97c-0.4,0.65-0.83,1.29-1.22,1.95l-1.13,2l-0.57,1       c-0.19,0.33-0.35,0.68-0.53,1.02l-1.03,2.05l-0.26,0.51l-0.24,0.52l-0.47,1.05c-0.31,0.7-0.63,1.4-0.93,2.1l-0.83,2.14       c-0.27,0.72-0.57,1.42-0.79,2.15c-2,5.78-3.33,11.79-3.97,17.86c-0.65,6.08-0.57,12.23,0.19,18.28       c0.38,3.02,0.92,6.03,1.65,8.99c0.73,2.96,1.63,5.87,2.69,8.73c1.06,2.85,2.28,5.65,3.66,8.36c1.38,2.71,2.93,5.34,4.61,7.87       c1.69,2.53,3.51,4.96,5.47,7.29c0.5,0.57,0.98,1.16,1.49,1.72l1.54,1.68l1.59,1.63c0.54,0.54,1.09,1.05,1.64,1.58       c2.21,2.08,4.54,4.03,6.97,5.84c2.43,1.81,4.96,3.49,7.58,5.02c0,0,16.88,10.6,30.96,11.51h0.01       c5.83,0.87,12.56,1.36,20.22,1.21v0c2.2-0.11,4.32-0.35,6.36-0.72c4.9-0.88,9.45-2.08,13.65-3.62       c12.79-4.69,23.25-12.13,31.36-22.32c4.25-5.34,7.93-11.45,11.04-18.33c0.01-0.01,0-0.03-0.01-0.03l-0.01,0       c-0.03-0.01-0.06,0-0.08,0.03c-3.97,7.35-9.16,13.82-15.39,19.01c-5.16,4.28-10.83,7.88-17.02,10.78       c-5.14,2.41-10.68,4.36-16.61,5.84c-7.96,1.99-16.04,2.63-24.25,1.92c-4.18-0.36-8.33-1.21-12.43-2.54       c-4.42-1.43-8.2-3.3-11.36-5.59c-2.39-1.74-4.56-3.7-6.5-5.89c1.63,1.35,6.47,3.47,13.08,5.25c8.78,2.36,20.7,4.12,32.38,2.71       c13.17-1.59,25.65-10.56,36.25-18.47c5.2-3.88,9.58-8.32,13.13-13.33c2.26-3.19,3.66-7.24,3.68-11.32       c0-1.33,0.07-2.19-0.05-3.12c-0.5-3.77-1.93-7.17-4.28-10.22c-0.05-0.07-0.16-0.08-0.22-0.03c-0.01,0.01-0.03,0.03-0.04,0.05       c-2.63,4.59-5.73,9.31-9.1,13.31c-1.56,1.86-3.28,3.76-5.4,4.73c-2,0.91-4.31,1.58-6.92,2.02c-2.23,0.37-5.06,0.76-8.47,1.17       c-2.99,0.36-5.53,0.74-8.07,2.19c-1.48,0.86-2.39,1.35-2.7,1.47c-1.82,0.73-3.62,1.37-5.42,1.93c-0.07,0.02-0.13-0.02-0.16-0.08       c-0.01-0.03-0.01-0.05,0-0.08c0.09-0.26,0.28-0.51,0.56-0.76c0.66-0.59,1.33-1.15,2.02-1.68c0.02-0.02,0.03-0.05,0.02-0.07       l-0.04-0.07l4.55-4.93h0c0.53-0.03,0.95-0.06,1.28-0.09c1.05-0.09,2.68-0.42,4.89-1.01c4.01-1.06,7.8-2.29,11.37-3.7       c2.87-1.13,6.05-2.84,7.97-5.32c0.91-1.17,1.89-2.62,2.94-4.35c0.24-0.39,2.07-3.48,5.49-9.27c1.49-2.52,3.29-5.22,5.4-8.1       c1.09-1.49,2.27-3.29,3.52-5.41c2.25-3.78,3.4-7.95,4.18-12.49c0.13-0.78,0.2-1.48,0.2-2.1c0-0.03-0.03-0.05-0.06-0.05       c-0.02,0-0.04,0.02-0.05,0.04c-0.4,1.51-0.92,3.03-1.55,4.56c-1.93,4.63-4.27,9.1-7.01,13.42c-2.5,3.93-4.62,7.19-6.36,9.79       c-3.76,5.62-8.78,10.68-15.46,12.52c-2.36,0.65-4.75,1.04-7.18,1.19h0c-0.24,0.02-0.47,0.03-0.71,0.04       c-2.09,0.09-3.58,0.16-4.49,0.24c-6.61,0.53-13,3.43-16.44,9.36c-0.03,0.06-0.11,0.08-0.17,0.04l-0.07-0.04       c-0.03-0.02-0.05-0.06-0.03-0.1c1.81-4.43,4.66-7.92,8.56-10.48c2.19-1.44,4.63-2.59,7.32-3.46c2.99-0.97,7.55-1.92,10.69-3.07       c1.24-0.45,2.47-0.98,3.72-1.59c0,0,0,0,0,0c1.33-0.65,2.66-1.4,3.99-2.23c0.02-0.01,0.03-0.02,0.05-0.04       c0.01-0.01,0-0.03-0.01-0.03c-0.01,0-0.01-0.01-0.02,0c-1.05,0.5-2.08,0.94-3.12,1.33h0c-2.3,0.85-4.57,1.41-6.8,1.67       c-1.79,0.22-4.13,0.27-6.99,0.16c-2.81-0.11-5.63-0.22-9.3-0.22c-1.33,0-2.51,0.05-3.53,0.14c0.65-1.67,1.25-3.23,1.82-4.69       c2.29-0.38,4.64-0.48,7.05-0.3c1.62,0.12,2.95,0.24,4.01,0.36c2.7,0.31,4.41,0.18,7.54,0.21c1.33,0.01,2.49-0.06,3.5-0.2       c2.52-0.36,4.88-0.99,7.12-1.91h0c3.69-1.51,6.99-3.78,9.91-6.82c3.37-3.51,6.12-7.73,8.28-12.65c0.01-0.02,0-0.05-0.02-0.06       l-0.07-0.04c-0.01-0.01-0.02,0-0.03,0.01l-11.95,12.93l0,0c-4.27,2.86-8.97,4.59-14.12,5.17c-2,0.23-4.28,0.13-6.69,0.15       c-0.65,0-1.54-0.05-2.67-0.17c-3.47-0.34-6.76-0.94-9.88-1.8c0.78-2.01,1.46-3.75,2.04-5.26c2.53,0.57,5.13,0.94,7.79,1.15       c0.35,0.02,0.73,0.02,1.13-0.03c0.03,0,0.05-0.02,0.05-0.04c0-0.01,0-0.02-0.01-0.02c0,0-0.01,0-0.01,0       c-2.96-0.21-5.9-0.81-8.47-2.31c0.75-1.93,1.32-3.4,1.75-4.52c0.42,0.33,0.86,0.64,1.32,0.95c3.45,2.31,7.93,3.23,12.15,3.22       c5.28-0.02,10.27-2,14.66-5.18c0.65-0.47,1.21-0.95,1.67-1.45c0.02-0.01,0.02-0.04,0.01-0.06c-0.01-0.02-0.05-0.02-0.06,0       c-3.31,2.32-7.18,2.92-11.22,2.49c-4.44-0.48-8.4-3.52-10.81-7.22c-0.03-0.05-0.02-0.12,0.03-0.15c0,0,0-0.01,0.01-0.01       l0.06-0.03c0.03-0.01,0.07-0.01,0.09,0.02c2.09,2.48,5.41,4.17,8.69,4.35c6.4,0.34,11.38-4.42,14.3-9.57       c0.69-1.22,1.42-2.46,2.18-3.73c2.31-3.83,5.87-6.57,10.39-6.83c1.3-0.07,2.53-0.04,3.69,0.1c2.19,0.26,4.79,1.37,5.46,3.63       c0.08,0.28,0.01,0.55-0.17,0.65c-0.02,0.01-0.05,0.05-0.07,0.13c-0.03,0.08-0.03,0.18,0.02,0.26c0.48,0.91,0.86,2.02,1.16,3.33       c0.38,1.71,1.89,2.41,3.45,3.04c0.1,0.04,0.15,0.16,0.11,0.26c0,0.01-0.01,0.02-0.01,0.02l-1.09,1.88       c-0.05,0.08-0.02,0.19,0.06,0.24c0.02,0.01,0.03,0.01,0.05,0.02c0.13,0.03,0.27,0.09,0.42,0.18c0.09,0.06,0.13,0.18,0.13,0.35       c-0.03,0.86-0.21,1.54-0.53,2.04c-0.05,0.08-0.06,0.18-0.02,0.27c0.31,0.65,0.42,1.3,0.32,1.95c-0.03,0.17-0.15,0.32-0.31,0.38       c-0.68,0.26-1.45,0.42-2.28,0.49c-1.24,0.09-2.74,0.34-3.38,1.57c-1.01,1.92-0.85,3.96-0.21,6c0.74,2.37,2.37,3.53,4.68,4.07       c1.51,0.36,3.26,0.59,4.09,1.27c1.27,1.02,1.23,2.44,1.27,3.99c0.02,0.95,0.38,1.75,1.06,2.38c1.05,0.98,2.2,2.28,2.33,3.81       C365.29,538.81,364.95,539.92,364.17,540.9z"/>
				<path class="st1" d="M378.99,577.63c-0.4-0.64-1.34-1.67-2.81-3.09c-1.26-1.23-2.23-2.26-2.91-3.1       c-3.39-4.23-6.55-8.34-9.14-13.33c-1.52-2.93-2.23-6.12-2.12-9.15c0-0.06-0.04-0.12-0.1-0.15c-0.08-0.04-0.17,0-0.21,0.08       c-1.62,3.97-2.22,8.17-2.47,12.52c-0.01,0.1,0.03,0.19,0.09,0.26c1.33,1.59,2.69,3.06,4.09,4.41c2.62,2.52,3.43,3.31,6.14,6.03       c0.99,0.99,1.78,2.11,2.37,3.35c0.49,1.04,0.87,1.76,1.12,2.15c0.85,1.31,2.04,3.25,3.58,5.79c0.02,0.03,0.04,0.05,0.07,0.07       c0.09,0.05,0.2,0.02,0.25-0.07c0.04-0.07,0.05-0.21,0.03-0.4c-0.11-1.19-0.36-2.38-0.75-3.57c-0.01-0.03,0-0.06,0.03-0.07       c0.03-0.01,0.06,0,0.07,0.03c0.25,0.41,0.47,0.89,0.66,1.45c0.44,1.33,0.42,3.11,1.12,4.62c0.03,0.07,0.09,0.11,0.17,0.12       c0.11,0.01,0.2-0.07,0.21-0.18l0.27-3.39c0-0.03,0.02-0.05,0.05-0.06c0.04-0.01,0.07,0.01,0.08,0.05l0.81,3.87       c0.01,0.03,0.02,0.05,0.03,0.08c0.07,0.1,0.2,0.13,0.31,0.07c0.08-0.05,0.12-0.11,0.14-0.16       C380.92,582.79,380.53,580.06,378.99,577.63z"/>
				<path class="st1" d="M355.3,609.46c1.87-3.1,3.48-6.62,4.81-10.58c1.3-3.88,2.02-7.87,2.16-11.97       c0.19-5.82-0.55-11.87-2.71-17.37c-0.02-0.05-0.07-0.09-0.13-0.09c-0.09-0.01-0.16,0.06-0.17,0.14       c-0.11,2.63-0.17,4.03-0.18,4.21c-0.34,7.01-1.68,13.93-4.02,20.74c-1.26,3.67-2.79,7.08-4.58,10.23       c-5.58,9.78-13.44,17.2-23.59,22.26c-5.97,2.97-12.1,5.09-18.39,6.35c-0.04,0.01-0.07,0.03-0.09,0.07       c-0.03,0.06-0.01,0.14,0.06,0.17c0.11,0.06,0.27,0.08,0.46,0.08c9.23-0.28,18.32-2.05,26.33-6       C343.45,623.66,350.57,617.28,355.3,609.46z"/>
				<path class="st1" d="M367.11,577.07c-1.34-2.66-3.1-5.07-5.27-7.23c-0.05-0.06-0.14-0.07-0.2-0.04       c-0.09,0.04-0.13,0.15-0.08,0.24c0.3,0.67,0.75,1.54,1.03,2.43c1.11,3.53,1.91,6.71,2.39,9.53c0.32,1.86,0.47,3.16,0.46,3.91       c-0.03,2.29,0.19,6.49-0.24,9.34c-1.42,9.46-5.46,17.9-11.95,24.54c-2.1,2.15-4.32,4.06-6.64,5.73       c-0.02,0.02-0.04,0.05-0.03,0.08c0.01,0.04,0.05,0.07,0.09,0.07c0.34-0.06,0.7-0.19,1.06-0.41c2.97-1.8,5.58-3.62,7.85-5.45       c7.54-6.11,13.35-15.24,14.67-24.92c0.24-1.77,0.11-3.4,0.17-5.17c0.04-1.3-0.06-2.59-0.31-3.86       C369.51,582.77,368.51,579.84,367.11,577.07z"/>
			</g>
		</g>
	</g>
</g>
</svg>